<?xml version="1.0" encoding="utf-8"?>
<!-- Generator: Adobe Illustrator 17.0.0, SVG Export Plug-In . SVG Version: 6.00 Build 0)  -->
<!DOCTYPE svg PUBLIC "-//W3C//DTD SVG 1.1//EN" "http://www.w3.org/Graphics/SVG/1.1/DTD/svg11.dtd">
<svg version="1.1" id="图层_1" xmlns="http://www.w3.org/2000/svg" xmlns:xlink="http://www.w3.org/1999/xlink" x="0px" y="0px"
	 width="23.462px" height="24.001px" viewBox="0 0 23.462 24.001" enable-background="new 0 0 23.462 24.001" xml:space="preserve">
<g>
	<path d="M15.272,6.387h4.354v14.789h-4.354V6.387z M2.501,11.97h7.381v9.206H2.501V11.97z M2.501,11.97"/>
	<path d="M21.525,3.638h-2.411c-0.026-0.564-0.497-1.018-1.07-1.018h-2.218c-0.572,0-1.041,0.454-1.07,1.021h-1.662
		c0,0-0.02-0.752-0.029-0.746c-0.168-1.035-1.073-1.83-2.154-1.83H8.729c0-0.601-0.491-1.09-1.09-1.09H5.456
		c-0.601,0-1.09,0.492-1.09,1.09H2.183C0.983,1.064,0,2.047,0,3.247v18.544c0,1.2,0.983,2.183,2.183,2.183h19.341
		c1.064,0,1.937-0.87,1.937-1.937V5.575C23.462,4.511,22.589,3.638,21.525,3.638L21.525,3.638z M11.427,21.211
		c0,0.601-0.492,1.09-1.09,1.09H2.767c-0.601,0-1.09-0.492-1.09-1.09V3.823c0-0.601,0.492-1.09,1.09-1.09h7.569
		c0.601,0,1.09,0.492,1.09,1.09V21.211z M21.857,21.399c0,0.532-0.437,0.969-0.969,0.969h-7.872
		c0.052-0.185,0.078-0.379,0.078-0.578V5.242h7.794c0.532,0,0.969,0.437,0.969,0.968V21.399z M21.857,21.399"/>
</g>
</svg>
