<?xml version="1.0" encoding="utf-8"?>
<!-- Generator: Adobe Illustrator 17.0.0, SVG Export Plug-In . SVG Version: 6.00 Build 0)  -->
<!DOCTYPE svg PUBLIC "-//W3C//DTD SVG 1.1//EN" "http://www.w3.org/Graphics/SVG/1.1/DTD/svg11.dtd">
<svg version="1.1" id="图层_1" xmlns="http://www.w3.org/2000/svg" xmlns:xlink="http://www.w3.org/1999/xlink" x="0px" y="0px"
	 width="24.99px" height="24.001px" viewBox="0 0 24.99 24.001" enable-background="new 0 0 24.99 24.001" xml:space="preserve">
<g>
	<g>
		<defs>
			<rect id="SVGID_1_" x="0.001" y="0" width="24.989" height="24"/>
		</defs>
		<clipPath id="SVGID_2_">
			<use xlink:href="#SVGID_1_"  overflow="visible"/>
		</clipPath>
		<path clip-path="url(#SVGID_2_)" d="M1.246,23.971c-0.333-0.002-0.652-0.136-0.886-0.372c-0.234-0.237-0.365-0.557-0.363-0.89
			V3.803c0-0.696,0.559-1.26,1.249-1.26h1.249V0.02h2.497v2.52h14.981V0.02h2.497v2.52h1.249c0.688,0,1.249,0.564,1.249,1.262
			v18.906c0,0.696-0.559,1.26-1.249,1.26H1.246V23.971z M9.992,11.68c1.367,0,2.561-0.718,3.359-2.022
			c0.066-0.107,0.084-0.237,0.049-0.357c-0.035-0.121-0.12-0.221-0.233-0.275l-0.99-0.485c-0.21-0.103-0.465-0.027-0.583,0.175
			c-0.395,0.675-0.975,1.064-1.593,1.064c-0.639,0-0.98-0.208-1.498-0.672C7.576,8.26,6.709,7.898,5.606,7.898
			c-1.368,0-2.561,0.719-3.359,2.024c-0.066,0.107-0.083,0.236-0.049,0.356c0.035,0.12,0.119,0.22,0.232,0.275l0.988,0.485
			c0.211,0.105,0.466,0.028,0.585-0.175C4.397,10.187,4.979,9.8,5.595,9.8c0.642,0,0.982,0.206,1.498,0.672
			C8.022,11.319,8.889,11.68,9.992,11.68L9.992,11.68z M13.417,20.188h9.365v-1.891h-9.365V20.188z M13.417,20.188"/>
	</g>
</g>
</svg>
