<?xml version="1.0" encoding="utf-8"?>
<!-- Generator: Adobe Illustrator 17.0.0, SVG Export Plug-In . SVG Version: 6.00 Build 0)  -->
<!DOCTYPE svg PUBLIC "-//W3C//DTD SVG 1.1//EN" "http://www.w3.org/Graphics/SVG/1.1/DTD/svg11.dtd">
<svg version="1.1" id="图层_1" xmlns="http://www.w3.org/2000/svg" xmlns:xlink="http://www.w3.org/1999/xlink" x="0px" y="0px"
	 width="14px" height="14px" viewBox="0 0 14 14" enable-background="new 0 0 14 14" xml:space="preserve">
<g>
	<g>
		<path fill="#D4237A" d="M7.005,0c-2.832-0.002-5.385,1.702-6.47,4.318c-1.085,2.616-0.487,5.627,1.514,7.63
			c2.002,2.003,5.013,2.603,7.629,1.519S14,9.832,14,7C14,3.136,10.869,0.003,7.005,0L7.005,0z M7.714,10.523
			c0.021,0.196-0.042,0.392-0.172,0.539c-0.13,0.148-0.317,0.234-0.514,0.238c-0.201-0.002-0.393-0.086-0.531-0.233
			c-0.138-0.147-0.21-0.343-0.201-0.545V5.888C6.286,5.687,6.358,5.49,6.496,5.344c0.138-0.147,0.33-0.231,0.531-0.233
			c0.197,0.004,0.383,0.09,0.514,0.238c0.13,0.148,0.193,0.343,0.172,0.539V10.523z M7.005,4.328c-0.328,0-0.623-0.197-0.748-0.5
			C6.131,3.526,6.2,3.177,6.432,2.946c0.232-0.232,0.58-0.301,0.883-0.176c0.303,0.125,0.5,0.421,0.5,0.748
			C7.814,3.966,7.452,4.328,7.005,4.328L7.005,4.328z M7.005,4.328"/>
	</g>
</g>
</svg>
