<?xml version="1.0" encoding="utf-8"?>
<!-- Generator: Adobe Illustrator 17.0.0, SVG Export Plug-In . SVG Version: 6.00 Build 0)  -->
<!DOCTYPE svg PUBLIC "-//W3C//DTD SVG 1.1//EN" "http://www.w3.org/Graphics/SVG/1.1/DTD/svg11.dtd">
<svg version="1.1" id="图层_1" xmlns="http://www.w3.org/2000/svg" xmlns:xlink="http://www.w3.org/1999/xlink" x="0px" y="0px"
	 width="24px" height="24px" viewBox="0 0 24 24" enable-background="new 0 0 24 24" xml:space="preserve">
<path fill="" d="M12,0L1.608,6v12L12,24l10.392-6V6L12,0z M19.269,8.525l-6.578,3.796l0.001,6.371
	c0,0.35-0.26,0.64-0.598,0.686L12,19.385c-0.184,0-0.36-0.073-0.49-0.203c-0.13-0.13-0.203-0.306-0.202-0.49v-6.37L4.73,8.523
	C4.433,8.352,4.306,7.989,4.432,7.67l0.044-0.093c0.092-0.159,0.243-0.275,0.421-0.323c0.177-0.047,0.366-0.022,0.525,0.07
	L12,11.122l6.577-3.797c0.331-0.191,0.755-0.077,0.946,0.254C19.714,7.91,19.6,8.334,19.269,8.525z"/>
</svg>
