<?xml version="1.0" encoding="utf-8"?>
<!-- Generator: Adobe Illustrator 17.0.0, SVG Export Plug-In . SVG Version: 6.00 Build 0)  -->
<!DOCTYPE svg PUBLIC "-//W3C//DTD SVG 1.1//EN" "http://www.w3.org/Graphics/SVG/1.1/DTD/svg11.dtd">
<svg version="1.1" id="图层_1" xmlns="http://www.w3.org/2000/svg" xmlns:xlink="http://www.w3.org/1999/xlink" x="0px" y="0px"
	 width="24.026px" height="24.001px" viewBox="0 0 24.026 24.001" enable-background="new 0 0 24.026 24.001" xml:space="preserve">
<g>
	<path fill="" d="M18.417,10.502h-4.904V5.252c0.003-2.901,2.354-5.249,5.255-5.249h0.342
		c2.708-0.003,4.904,2.19,4.904,4.898v0.003c-0.003,3.094-2.512,5.6-5.603,5.597H18.417z M5.258,23.998H4.912
		C2.204,24.003,0.006,21.811,0,19.103v-0.006c0.003-3.094,2.512-5.6,5.603-5.597h4.904v5.249C10.51,21.65,8.156,24,5.258,23.998
		C5.255,23.998,5.255,23.998,5.258,23.998L5.258,23.998z M0.003,4.901C0.003,2.193,2.199,0,4.907,0h0.346
		c2.901-0.003,5.252,2.348,5.255,5.249v5.249H5.606C2.515,10.502,0.006,7.996,0.003,4.901L0.003,4.901z M24.023,19.1
		C24.02,21.808,21.825,24,19.12,24h-0.342c-2.904,0-5.255-2.351-5.258-5.249v-5.252h4.904c3.094,0,5.6,2.506,5.603,5.597
		L24.023,19.1z M24.023,19.1"/>
</g>
</svg>
