<?xml version="1.0" encoding="utf-8"?>
<!-- Generator: Adobe Illustrator 17.0.0, SVG Export Plug-In . SVG Version: 6.00 Build 0)  -->
<!DOCTYPE svg PUBLIC "-//W3C//DTD SVG 1.1//EN" "http://www.w3.org/Graphics/SVG/1.1/DTD/svg11.dtd">
<svg version="1.1" id="图层_1" xmlns="http://www.w3.org/2000/svg" xmlns:xlink="http://www.w3.org/1999/xlink" x="0px" y="0px"
	 width="14px" height="14px" viewBox="0 0 14 14" enable-background="new 0 0 14 14" xml:space="preserve">
<g>
	<path fill="#19C280" d="M6.813,6.182V2.427L4.59,7.714l2.222,0.766v3.755l2.222-5.287L6.813,6.182z M9.035,6.948"/>
	<g>
		<path fill="#19C280" d="M5.608,1.129H3.47c-0.662,0-1.204,0.542-1.204,1.204v9.996c0,0.662,0.542,1.204,1.204,1.204h6.564
			c0.662,0,1.204-0.542,1.204-1.204V2.273c0-0.662-0.542-1.204-1.204-1.204H7.896c0-0.301-0.241-0.602-0.602-0.602H6.09
			C5.909,0.527,5.608,0.828,5.608,1.129L5.608,1.129z M6.21,1.731h3.884c0.301,0,0.602,0.241,0.602,0.602v9.996
			c0,0.301-0.241,0.602-0.602,0.602H3.531c-0.301,0-0.602-0.241-0.602-0.602V2.336c0-0.301,0.241-0.602,0.602-0.602h2.68V1.731z
			 M6.21,1.731"/>
		<path fill="#19C280" d="M10.034,14H3.471c-0.922,0-1.671-0.749-1.671-1.671V2.334c0-0.922,0.75-1.671,1.671-1.671h1.787
			C5.419,0.342,5.716,0.1,5.942,0.024L6.09,0h1.205c0.422,0,0.788,0.246,0.961,0.602h1.778c0.922,0,1.672,0.75,1.672,1.671v10.056
			C11.705,13.251,10.955,14,10.034,14z M3.531,2.2c-0.101,0-0.135,0.093-0.135,0.135v9.994c0,0.104,0.099,0.136,0.135,0.136h6.564
			c0.103,0,0.135-0.099,0.135-0.136V2.334c0-0.102-0.093-0.136-0.135-0.136L3.531,2.2z M6.205,0.934
			c-0.056,0.05-0.128,0.149-0.13,0.196L6.069,1.265L7.43,1.264V1.069c0-0.042-0.034-0.135-0.135-0.135H6.205z"/>
	</g>
</g>
</svg>
