<?xml version="1.0" encoding="utf-8"?>
<!-- Generator: Adobe Illustrator 17.0.0, SVG Export Plug-In . SVG Version: 6.00 Build 0)  -->
<!DOCTYPE svg PUBLIC "-//W3C//DTD SVG 1.1//EN" "http://www.w3.org/Graphics/SVG/1.1/DTD/svg11.dtd">
<svg version="1.1" id="图层_1" xmlns="http://www.w3.org/2000/svg" xmlns:xlink="http://www.w3.org/1999/xlink" x="0px" y="0px"
	 width="14px" height="14px" viewBox="0 0 14 14" enable-background="new 0 0 14 14" xml:space="preserve">
<g>
	<g>
		<defs>
			<rect id="SVGID_1_" x="0" y="0" width="13.983" height="14"/>
		</defs>
		<clipPath id="SVGID_2_">
			<use xlink:href="#SVGID_1_"  overflow="visible"/>
		</clipPath>
		<path clip-path="url(#SVGID_2_)" fill="" d="M8.073,6.995l5.693-5.693c0.288-0.288,0.288-0.76,0-1.048l-0.031-0.031
			c-0.288-0.288-0.76-0.288-1.048,0l-5.693,5.7L1.3,0.221c-0.288-0.288-0.76-0.288-1.048,0L0.221,0.252
			c-0.295,0.288-0.295,0.76,0,1.048l5.693,5.696l-5.693,5.693c-0.288,0.288-0.288,0.76,0,1.048l0.031,0.031
			c0.288,0.288,0.76,0.288,1.048,0l5.693-5.693l5.693,5.693c0.288,0.288,0.76,0.288,1.048,0l0.031-0.031
			c0.288-0.288,0.288-0.76,0-1.048L8.073,6.995z M8.073,6.995"/>
	</g>
</g>
</svg>
