<?xml version="1.0" encoding="utf-8"?>
<!-- Generator: Adobe Illustrator 17.0.0, SVG Export Plug-In . SVG Version: 6.00 Build 0)  -->
<!DOCTYPE svg PUBLIC "-//W3C//DTD SVG 1.1//EN" "http://www.w3.org/Graphics/SVG/1.1/DTD/svg11.dtd">
<svg version="1.1" id="图层_1" xmlns="http://www.w3.org/2000/svg" xmlns:xlink="http://www.w3.org/1999/xlink" x="0px" y="0px"
	 width="20.001px" height="20px" viewBox="0 0 20.001 20" enable-background="new 0 0 20.001 20" xml:space="preserve">
<g>
	<g>
		<path d="M10.001,20.001c-2.75,0-5.25-1.125-7.001-3.25c-0.25-0.25-0.125-0.625,0.125-0.875C3.375,15.625,3.75,15.75,4,16
			c1.5,1.75,3.625,2.75,6,2.75c1.75,0,3.375-0.5,4.75-1.625c0.25-0.25,0.625-0.125,0.875,0.125c0.25,0.25,0.125,0.625-0.125,0.875
			C14.001,19.376,12.001,20.001,10.001,20.001L10.001,20.001z M18.251,13.25c-0.5-0.125-0.625-0.375-0.625-0.75
			c0.125-0.5,0.125-1,0.125-1.5c0-3-1.625-5.625-4.375-6.875c-0.25-0.125-0.5-0.5-0.25-0.875C13.251,3,13.626,2.875,14.001,3
			c3.125,1.5,5,4.625,5,8.001c0,0.625,0,1.25-0.125,1.75C18.876,13.125,18.626,13.25,18.251,13.25L18.251,13.25z M1.5,11.375
			c-0.375,0-0.625-0.25-0.625-0.625c0.125-4,3-7.5,7-8.501C8.25,2.124,8.5,2.375,8.625,2.75C8.75,3.125,8.5,3.375,8.125,3.5
			c-3.375,0.75-5.875,3.75-6,7.25C2.125,11.125,1.875,11.375,1.5,11.375L1.5,11.375z M1.5,11.375"/>
		<path d="M10.125,5C8.75,5,7.5,3.875,7.5,2.499c0-1.375,1.125-2.5,2.5-2.5c1.375,0,2.5,1.125,2.5,2.5
			C12.501,3.875,11.501,5,10.125,5L10.125,5z M10.125,1.249c-0.75,0-1.25,0.625-1.25,1.25c0,0.625,0.5,1.25,1.25,1.25
			c0.75,0,1.25-0.625,1.25-1.25C11.376,1.875,10.751,1.249,10.125,1.249L10.125,1.249z M2.5,17.25c-1.375,0-2.5-1.125-2.5-2.5
			s1.125-2.5,2.5-2.5c1.375,0,2.5,1.125,2.5,2.5S3.875,17.25,2.5,17.25L2.5,17.25z M2.5,13.5c-0.75,0-1.25,0.625-1.25,1.25
			C1.25,15.5,1.75,16,2.5,16c0.75,0,1.25-0.625,1.25-1.25C3.75,14,3.25,13.5,2.5,13.5L2.5,13.5z M17.501,17.25
			c-1.375,0-2.5-1.125-2.5-2.5s1.125-2.5,2.5-2.5c1.375,0,2.5,1.125,2.5,2.5S18.876,17.25,17.501,17.25L17.501,17.25z M17.501,13.5
			c-0.75,0-1.25,0.625-1.25,1.25c0,0.75,0.5,1.25,1.25,1.25c0.75,0,1.25-0.625,1.25-1.25C18.751,14,18.126,13.5,17.501,13.5
			L17.501,13.5z M17.501,13.5"/>
	</g>
</g>
</svg>
