<?xml version="1.0" encoding="utf-8"?>
<!-- Generator: Adobe Illustrator 17.0.0, SVG Export Plug-In . SVG Version: 6.00 Build 0)  -->
<!DOCTYPE svg PUBLIC "-//W3C//DTD SVG 1.1//EN" "http://www.w3.org/Graphics/SVG/1.1/DTD/svg11.dtd">
<svg version="1.1" id="图层_1" xmlns="http://www.w3.org/2000/svg" xmlns:xlink="http://www.w3.org/1999/xlink" x="0px" y="0px"
	 width="14px" height="14px" viewBox="0 0 14 14" enable-background="new 0 0 14 14" xml:space="preserve">
<g>
	<g>
		<defs>
			<rect id="SVGID_1_" x="0.008" y="0" width="13.985" height="14"/>
		</defs>
		<clipPath id="SVGID_2_">
			<use xlink:href="#SVGID_1_"  overflow="visible"/>
		</clipPath>
		<path clip-path="url(#SVGID_2_)" fill="#C21022" d="M6.993,13.983c-3.828,0-6.987-3.159-6.987-6.987
			c0-3.828,3.159-6.987,6.987-6.987c3.828,0,6.987,3.159,6.987,6.987C13.98,10.824,10.82,13.983,6.993,13.983L6.993,13.983z
			 M6.993,1.224c-3.159,0-5.772,2.613-5.772,5.772c0,3.159,2.613,5.772,5.772,5.772c3.159,0,5.772-2.613,5.772-5.772
			C12.765,3.837,10.152,1.224,6.993,1.224L6.993,1.224z M7.053,8.029c-0.364,0-0.607-0.243-0.607-0.608v-4.01
			c0-0.364,0.243-0.607,0.607-0.607c0.364,0,0.608,0.243,0.608,0.607v3.949C7.661,7.725,7.357,8.029,7.053,8.029L7.053,8.029z
			 M6.203,9.791c0,0.47,0.381,0.85,0.85,0.85c0.47,0,0.85-0.381,0.85-0.85c0-0.47-0.381-0.851-0.851-0.851
			C6.583,8.94,6.203,9.321,6.203,9.791L6.203,9.791z M6.203,9.791"/>
	</g>
</g>
</svg>
