<?xml version="1.0" encoding="utf-8"?>
<!-- Generator: Adobe Illustrator 17.0.0, SVG Export Plug-In . SVG Version: 6.00 Build 0)  -->
<!DOCTYPE svg PUBLIC "-//W3C//DTD SVG 1.1//EN" "http://www.w3.org/Graphics/SVG/1.1/DTD/svg11.dtd">
<svg version="1.1" id="图层_1" xmlns="http://www.w3.org/2000/svg" xmlns:xlink="http://www.w3.org/1999/xlink" x="0px" y="0px"
	 width="14px" height="14px" viewBox="0 0 14 14" enable-background="new 0 0 14 14" xml:space="preserve">
<g>
	<g>
		<path fill="#D4237A" d="M12.5,9.681v-2.69c0-0.298-0.224-0.538-0.5-0.538H7.501V4.303h0.928c0.315,0,0.572-0.275,0.572-0.615
			V0.614C9.001,0.275,8.746,0,8.429,0H5.572C5.257,0,5,0.275,5,0.614v3.073c0,0.339,0.256,0.615,0.572,0.615H6.5v2.151H2
			c-0.277,0-0.5,0.241-0.5,0.538v2.708H0.572C0.257,9.699,0,9.974,0,10.313v3.073C0,13.725,0.256,14,0.572,14h2.857
			C3.744,14,4,13.725,4,13.386v-3.072C4,9.975,3.745,9.7,3.428,9.7H2.5V7.529h4V9.68H5.572C5.257,9.68,5,9.955,5,10.294v3.073
			c0,0.339,0.256,0.614,0.572,0.614h2.857C8.744,13.981,9,13.706,9,13.367v-3.072c0-0.339-0.256-0.614-0.572-0.614H7.5V7.529h4V9.68
			h-0.928C10.257,9.68,10,9.955,10,10.294v3.073c0,0.339,0.256,0.614,0.572,0.614h2.857c0.315,0,0.572-0.275,0.572-0.614v-3.072
			c0-0.339-0.256-0.614-0.572-0.614H12.5 M6.001,1.076h2v2.151h-2V1.076 M3.001,12.926h-2v-2.151h2V12.926 M8.001,12.907h-2v-2.151
			h2V12.907 M13.001,12.907h-2v-2.151h2L13.001,12.907"/>
	</g>
</g>
</svg>
