<?xml version="1.0" encoding="utf-8"?>
<!-- Generator: Adobe Illustrator 17.0.0, SVG Export Plug-In . SVG Version: 6.00 Build 0)  -->
<!DOCTYPE svg PUBLIC "-//W3C//DTD SVG 1.1//EN" "http://www.w3.org/Graphics/SVG/1.1/DTD/svg11.dtd">
<svg version="1.1" id="图层_1" xmlns="http://www.w3.org/2000/svg" xmlns:xlink="http://www.w3.org/1999/xlink" x="0px" y="0px"
	 width="14px" height="14px" viewBox="0 0 14 14" enable-background="new 0 0 14 14" xml:space="preserve">
<g>
	<path fill="#2894F0" d="M6.263,9.579H4.79c-0.442,0-0.737,0.295-0.737,0.737c0,0.442,0.295,0.737,0.737,0.737h1.547v-0.368
		c0-0.368,0.074-0.737,0.221-1.032C6.411,9.579,6.337,9.579,6.263,9.579L6.263,9.579z M6.558,12.526H2.579V3.684h5.895v3.979
		c0.442-0.221,0.958-0.295,1.474-0.295V3.684c0-0.811-0.663-1.474-1.474-1.474H2.579c-0.811,0-1.474,0.663-1.474,1.474v8.842
		C1.105,13.337,1.769,14,2.579,14h5.158C7.221,13.632,6.853,13.116,6.558,12.526L6.558,12.526z M6.263,5.158H4.79
		c-0.442,0-0.737,0.295-0.737,0.737c0,0.442,0.295,0.737,0.737,0.737h1.474C6.705,6.632,7,6.337,7,5.895
		C7,5.453,6.632,5.158,6.263,5.158L6.263,5.158z M9.948,8.105C8.327,8.105,7,9.432,7,11.053C7,12.674,8.327,14,9.948,14
		c1.621,0,2.947-1.326,2.947-2.947C12.895,9.432,11.569,8.105,9.948,8.105L9.948,8.105z M10.684,11.79H9.211
		c-0.442,0-0.737-0.295-0.737-0.737c0-0.442,0.295-0.737,0.737-0.737h1.474c0.442,0,0.737,0.295,0.737,0.737
		C11.421,11.495,11.127,11.79,10.684,11.79L10.684,11.79z M7,8.105c0-0.442-0.295-0.737-0.737-0.737H4.79
		c-0.442,0-0.737,0.295-0.737,0.737c0,0.442,0.295,0.737,0.737,0.737h1.474C6.632,8.842,7,8.547,7,8.105L7,8.105z M4.053,1.474H7
		c0.442,0,0.737-0.295,0.737-0.737C7.737,0.295,7.442,0,7,0H4.053C3.611,0,3.316,0.295,3.316,0.737
		C3.316,1.179,3.611,1.474,4.053,1.474L4.053,1.474z M4.053,1.474"/>
</g>
</svg>
