<?xml version="1.0" encoding="utf-8"?>
<!-- Generator: Adobe Illustrator 17.0.0, SVG Export Plug-In . SVG Version: 6.00 Build 0)  -->
<!DOCTYPE svg PUBLIC "-//W3C//DTD SVG 1.1//EN" "http://www.w3.org/Graphics/SVG/1.1/DTD/svg11.dtd">
<svg version="1.1" id="图层_1" xmlns="http://www.w3.org/2000/svg" xmlns:xlink="http://www.w3.org/1999/xlink" x="0px" y="0px"
	 width="19.99px" height="20.001px" viewBox="160.085 160.079 19.99 20.001" enable-background="new 160.085 160.079 19.99 20.001"
	 xml:space="preserve">
<g>
	<path d="M170.091,170.869c2.979,0,5.395-2.416,5.395-5.395c0-2.979-2.416-5.395-5.395-5.395c-2.979,0-5.395,2.416-5.395,5.395
		C164.696,168.442,167.123,170.869,170.091,170.869L170.091,170.869z M170.091,161.679c2.096,0,3.795,1.699,3.795,3.795
		s-1.699,3.795-3.795,3.795s-3.795-1.699-3.795-3.795S168.006,161.679,170.091,161.679L170.091,161.679z M176.136,173.483
		c-1.864-0.783-4.236-1.291-6.057-1.291c-1.809,0-4.192,0.507-6.057,1.291c-2.582,1.081-3.938,2.559-3.938,4.269v1.522
		c0,0.441,0.353,0.805,0.805,0.805h18.379c0.441,0,0.805-0.353,0.805-0.805v-1.522C180.064,176.032,178.707,174.565,176.136,173.483
		L176.136,173.483z M178.464,178.47h-16.78v-0.728c0-2.328,5.45-3.961,8.395-3.961c2.946,0,8.384,1.633,8.384,3.961L178.464,178.47
		L178.464,178.47z"/>
</g>
</svg>
