<?xml version="1.0" encoding="utf-8"?>
<!-- Generator: Adobe Illustrator 17.0.0, SVG Export Plug-In . SVG Version: 6.00 Build 0)  -->
<!DOCTYPE svg PUBLIC "-//W3C//DTD SVG 1.1//EN" "http://www.w3.org/Graphics/SVG/1.1/DTD/svg11.dtd">
<svg version="1.1" id="图层_1" xmlns="http://www.w3.org/2000/svg" xmlns:xlink="http://www.w3.org/1999/xlink" x="0px" y="0px"
	 width="14px" height="14px" viewBox="0 0 14 14" enable-background="new 0 0 14 14" xml:space="preserve">
<g>
	<g>
		<defs>
			<rect id="SVGID_1_" x="0.386" y="0" width="13.228" height="14"/>
		</defs>
		<clipPath id="SVGID_2_">
			<use xlink:href="#SVGID_1_"  overflow="visible"/>
		</clipPath>
		<path clip-path="url(#SVGID_2_)" fill="#D4237A" d="M12.275,0.004H8.91c-0.733,0-1.334,0.601-1.334,1.334v3.365
			c0,0.733,0.601,1.334,1.334,1.334h3.365c0.733,0,1.334-0.601,1.334-1.334V1.338C13.61,0.605,13.009,0.004,12.275,0.004
			L12.275,0.004z M12.71,4.568c0,0.326-0.267,0.593-0.593,0.593H9.104c-0.327,0-0.593-0.267-0.593-0.593V1.555
			c0-0.327,0.267-0.593,0.593-0.593h3.013c0.327,0,0.593,0.267,0.593,0.593V4.568z M6.716,1.052c0.028,0.252-0.16,0.477-0.414,0.493
			C6.053,1.561,5.767,1.597,5.458,1.67C4.503,1.897,3.863,2.344,3.635,2.515C2.923,3.048,2.546,3.639,2.346,3.96
			C2.115,4.33,1.988,4.629,1.857,4.938c-0.424,1.001-0.497,1.69-0.511,1.845C1.345,6.792,1.345,6.8,1.344,6.807
			C1.324,7.024,1.149,7.196,0.931,7.21L0.862,7.214C0.591,7.237,0.366,7.012,0.385,6.741C0.399,6.56,0.42,6.357,0.454,6.14
			C0.648,4.889,1.107,4.019,1.21,3.828c0.573-1.06,1.284-1.688,1.468-1.845c1.094-0.939,2.204-1.227,2.469-1.291
			c0.41-0.099,0.781-0.141,1.096-0.153c0.234-0.01,0.435,0.163,0.46,0.395L6.716,1.052z M13.23,7.545
			c-0.018,0.314-0.068,0.685-0.173,1.092c-0.058,0.22-0.281,1.027-0.912,1.914c-0.141,0.198-0.414,0.246-0.615,0.11l-0.27-0.186
			c-0.118-0.08-0.142-0.243-0.055-0.356c0-0.001,0.001-0.001,0.001-0.003c0.174-0.225,0.635-0.857,0.877-1.809
			C12.161,8,12.204,7.715,12.223,7.466c0.021-0.253,0.248-0.438,0.5-0.405l0.118,0.015C13.074,7.107,13.242,7.311,13.23,7.545
			L13.23,7.545z M10.502,13.85l-0.063,0.063c-0.093,0.093-0.242,0.091-0.334-0.003l-3.319-3.409
			c-0.093-0.096-0.087-0.249,0.011-0.338l0.066-0.059c0.093-0.084,0.238-0.08,0.325,0.01l3.316,3.405
			C10.594,13.613,10.592,13.759,10.502,13.85L10.502,13.85z M10.502,13.85"/>
		<path clip-path="url(#SVGID_2_)" fill="#D4237A" d="M6.793,13.85l0.063,0.063c0.093,0.093,0.242,0.091,0.334-0.003l3.319-3.407
			c0.093-0.096,0.087-0.249-0.011-0.338l-0.066-0.059c-0.093-0.084-0.238-0.08-0.325,0.01l-3.316,3.405
			C6.7,13.613,6.702,13.759,6.793,13.85L6.793,13.85z M5.085,7.948H1.72c-0.733,0-1.334,0.601-1.334,1.334v3.365
			c0,0.733,0.601,1.334,1.334,1.334h3.365c0.733,0,1.334-0.601,1.334-1.334V9.282C6.419,8.549,5.818,7.948,5.085,7.948L5.085,7.948z
			 M5.52,12.512c0,0.327-0.267,0.593-0.593,0.593H1.912c-0.326,0-0.593-0.267-0.593-0.593V9.497c0-0.327,0.267-0.593,0.593-0.593
			h3.013c0.327,0,0.593,0.267,0.593,0.593v3.015H5.52z M5.52,12.512"/>
	</g>
</g>
</svg>
