<?xml version="1.0" encoding="utf-8"?>
<!-- Generator: Adobe Illustrator 17.0.0, SVG Export Plug-In . SVG Version: 6.00 Build 0)  -->
<!DOCTYPE svg PUBLIC "-//W3C//DTD SVG 1.1//EN" "http://www.w3.org/Graphics/SVG/1.1/DTD/svg11.dtd">
<svg version="1.1" id="图层_1" xmlns="http://www.w3.org/2000/svg" xmlns:xlink="http://www.w3.org/1999/xlink" x="0px" y="0px"
	 width="19.967px" height="20.001px" viewBox="0 0 19.967 20.001" enable-background="new 0 0 19.967 20.001" xml:space="preserve">
<g>
	<g>
		<defs>
			<rect id="SVGID_1_" x="0" y="0.001" width="19.967" height="20"/>
		</defs>
		<clipPath id="SVGID_2_">
			<use xlink:href="#SVGID_1_"  overflow="visible"/>
		</clipPath>
		<path clip-path="url(#SVGID_2_)" d="M9.972,0.022c3.563,0,6.855,1.901,8.637,4.986c1.782,3.086,1.782,6.887,0,9.973
			c-1.782,3.086-5.074,4.986-8.637,4.986C4.465,19.967,0,15.502,0,9.995S4.465,0.022,9.972,0.022L9.972,0.022z M9.972,1.835
			c-2.954-0.06-5.71,1.482-7.205,4.031c-1.495,2.549-1.495,5.707,0,8.256c1.495,2.549,4.25,4.091,7.205,4.031
			c4.442-0.09,7.996-3.716,7.996-8.159C17.969,5.552,14.414,1.925,9.972,1.835L9.972,1.835z M8.455,4.224
			c0.17,0.17,0.266,0.4,0.266,0.641c0,0.24-0.096,0.471-0.266,0.641l-1.02,1.017h3.994c2.198,0.001,4.019,1.706,4.164,3.899
			l0.01,0.274c0,2.199-1.705,4.021-3.899,4.165l-0.274,0.01H8.501c-0.473,0.002-0.867-0.361-0.906-0.832
			c-0.039-0.471,0.291-0.893,0.758-0.968l0.148-0.012h2.925c1.265,0.007,2.311-0.984,2.372-2.247
			c0.062-1.263-0.883-2.351-2.143-2.467l-0.228-0.012H7.439l1.015,1.017c0.354,0.354,0.355,0.928,0.001,1.282
			c-0.354,0.354-0.928,0.355-1.282,0.001L4.609,8.07c-0.17-0.17-0.265-0.4-0.265-0.641s0.096-0.471,0.265-0.641l2.565-2.565
			c0.17-0.17,0.4-0.266,0.641-0.266S8.285,4.054,8.455,4.224L8.455,4.224z M8.455,4.224"/>
	</g>
</g>
</svg>
