<?xml version="1.0" encoding="utf-8"?>
<!-- Generator: Adobe Illustrator 17.0.0, SVG Export Plug-In . SVG Version: 6.00 Build 0)  -->
<!DOCTYPE svg PUBLIC "-//W3C//DTD SVG 1.1//EN" "http://www.w3.org/Graphics/SVG/1.1/DTD/svg11.dtd">
<svg version="1.1" id="图层_1" xmlns="http://www.w3.org/2000/svg" xmlns:xlink="http://www.w3.org/1999/xlink" x="0px" y="0px"
	 width="14px" height="14px" viewBox="0 0 14 14" enable-background="new 0 0 14 14" xml:space="preserve">
<g>
	<g>
		<path fill="#84A0B6" d="M7.601,0.862L3.803,3.261H1.907C0.854,3.261,0,4.09,0,5.127v3.744c0,1.031,0.844,1.868,1.907,1.868h1.896
			l3.8,2.398c0.537,0.23,0.953-0.016,0.953-0.535V1.398C8.556,0.877,8.129,0.638,7.601,0.862L7.601,0.862z M10.005,4.03
			c-0.064-0.085-0.163-0.136-0.269-0.14C9.631,3.885,9.528,3.929,9.458,4.008C9.301,4.186,9.293,4.449,9.438,4.636
			c0.073,0.09,0.197,0.286,0.323,0.582C9.979,5.724,10.11,6.32,10.11,6.999c0,0.679-0.132,1.276-0.349,1.781
			C9.634,9.078,9.51,9.274,9.438,9.362C9.291,9.549,9.3,9.814,9.458,9.991c0.071,0.08,0.173,0.124,0.28,0.119
			c0.107-0.004,0.205-0.057,0.269-0.142c0.122-0.149,0.29-0.416,0.453-0.796c0.29-0.688,0.435-1.428,0.429-2.175
			c0.007-0.746-0.139-1.486-0.429-2.174C10.295,4.447,10.128,4.179,10.005,4.03L10.005,4.03z M12.891,3.749
			c-0.418-0.629-0.842-1.065-1.139-1.299c-0.22-0.169-0.53-0.153-0.731,0.037c-0.091,0.086-0.139,0.209-0.131,0.334
			c0.008,0.125,0.071,0.24,0.173,0.315c0.049,0.039,0.146,0.124,0.277,0.26c0.223,0.229,0.447,0.504,0.658,0.821
			c0.632,0.937,0.968,2.042,0.965,3.173c0,1.206-0.362,2.267-0.965,3.173c-0.194,0.293-0.415,0.568-0.658,0.821
			c-0.086,0.092-0.179,0.179-0.277,0.258c-0.102,0.074-0.165,0.189-0.173,0.314c-0.008,0.125,0.04,0.248,0.131,0.334
			c0.202,0.19,0.511,0.206,0.731,0.037c0.298-0.234,0.72-0.67,1.139-1.299c0.726-1.075,1.112-2.343,1.109-3.64
			C14.003,6.092,13.617,4.824,12.891,3.749L12.891,3.749z M12.891,3.749"/>
	</g>
</g>
</svg>
